<?xml version="1.0" standalone="no"?>
<!DOCTYPE svg PUBLIC "-//W3C//DTD SVG 20010904//EN"
 "http://www.w3.org/TR/2001/REC-SVG-20010904/DTD/svg10.dtd">
<svg version="1.0" xmlns="http://www.w3.org/2000/svg"
 width="1280.000000pt" height="1278.000000pt" viewBox="0 0 1280.000000 1278.000000"
 preserveAspectRatio="xMidYMid meet">
<g transform="translate(0.000000,1278.000000) scale(0.100000,-0.100000)"
fill="#000000" stroke="none">
<path d="M6225 12752 c-27 -16 -61 -35 -74 -43 -20 -12 -24 -12 -29 0 -8 23
-40 50 -68 57 -37 9 -94 -10 -149 -52 l-47 -37 -25 32 c-21 27 -31 31 -70 31
-54 0 -100 -20 -138 -60 -35 -36 -42 -37 -66 -6 -42 53 -124 40 -201 -32 l-49
-46 -24 26 c-50 54 -124 42 -202 -34 l-42 -41 -31 27 c-53 44 -124 27 -190
-46 l-38 -41 -32 26 c-19 17 -44 27 -62 27 -44 0 -109 -41 -143 -89 -15 -23
-30 -41 -32 -41 -3 0 -18 11 -35 25 -16 14 -41 25 -55 25 -41 0 -108 -46 -139
-95 -31 -47 -44 -54 -63 -31 -7 8 -25 18 -41 21 -51 11 -117 -33 -170 -114
l-15 -23 -37 21 c-26 16 -44 20 -65 15 -41 -10 -90 -49 -115 -94 -25 -44 -33
-47 -62 -25 -26 19 -69 19 -107 0 -31 -16 -89 -89 -89 -111 0 -23 -20 -26 -56
-9 -28 13 -41 14 -69 5 -42 -14 -99 -75 -115 -124 -13 -41 -17 -42 -57 -19
-56 32 -133 -17 -172 -108 -18 -40 -26 -49 -39 -43 -9 4 -36 9 -60 12 -40 4
-46 1 -82 -37 -22 -23 -45 -59 -51 -82 -14 -44 -33 -59 -52 -40 -16 16 -64 14
-96 -5 -33 -19 -65 -68 -82 -123 -14 -46 -11 -45 -55 -29 -65 23 -133 -36
-160 -140 -9 -37 -16 -46 -30 -44 -80 14 -81 14 -117 -17 -34 -30 -67 -101
-67 -143 0 -17 -6 -18 -48 -12 -43 5 -52 3 -80 -21 -41 -35 -53 -57 -68 -125
-9 -45 -14 -54 -30 -52 -93 14 -145 -34 -160 -146 l-7 -52 -44 0 c-24 0 -53
-5 -64 -10 -28 -16 -59 -83 -67 -148 l-7 -57 -38 3 c-72 7 -116 -47 -126 -153
l-6 -60 -42 -1 c-72 -1 -113 -56 -118 -158 l-4 -61 -43 -3 c-74 -6 -101 -43
-108 -152 l-5 -75 -39 -2 c-73 -4 -111 -70 -104 -182 l3 -56 -40 -3 c-71 -6
-98 -50 -99 -162 l-1 -74 -34 -3 c-66 -6 -94 -54 -89 -156 l3 -71 -34 -7 c-18
-4 -45 -19 -60 -33 -23 -23 -26 -34 -26 -94 0 -37 2 -78 5 -91 4 -21 0 -26
-30 -33 -81 -20 -103 -100 -64 -234 5 -18 0 -22 -30 -28 -66 -12 -99 -88 -77
-175 18 -72 18 -73 -19 -86 -19 -6 -42 -25 -52 -41 -22 -36 -23 -112 -3 -161
19 -45 13 -63 -18 -63 -35 0 -69 -42 -74 -92 -4 -38 4 -76 32 -140 5 -13 -1
-20 -28 -32 -70 -29 -85 -121 -38 -215 12 -22 21 -42 21 -45 0 -2 -16 -10 -36
-16 -66 -22 -81 -111 -35 -200 12 -23 21 -44 21 -48 0 -5 -16 -16 -34 -25 -27
-12 -38 -26 -47 -58 -12 -37 -11 -49 9 -105 26 -73 27 -84 9 -84 -8 0 -24 -12
-38 -26 -36 -38 -32 -104 9 -178 l32 -56 -25 -12 c-25 -11 -65 -68 -65 -92 0
-21 37 -98 64 -135 15 -19 26 -36 26 -38 0 -1 -14 -10 -30 -18 -17 -9 -38 -31
-47 -50 -15 -31 -15 -36 1 -76 10 -23 32 -63 49 -87 25 -35 29 -46 18 -50 -8
-3 -25 -15 -38 -28 -42 -42 -26 -125 38 -199 32 -36 33 -39 15 -49 -79 -45
-76 -136 7 -223 l30 -32 -32 -36 c-19 -22 -31 -46 -31 -63 1 -40 33 -103 73
-141 l36 -34 -29 -34 c-40 -45 -40 -95 -2 -152 15 -23 38 -48 50 -57 26 -18
28 -37 6 -55 -50 -42 -39 -114 29 -186 l49 -52 -26 -31 c-45 -54 -26 -124 50
-188 24 -20 44 -40 44 -45 0 -4 -10 -21 -21 -37 -40 -54 -9 -132 77 -190 l44
-31 -22 -30 c-27 -36 -27 -92 -1 -128 11 -14 40 -41 64 -60 53 -40 56 -47 33
-72 -23 -26 -22 -84 3 -118 20 -27 92 -85 115 -94 10 -4 11 -8 0 -23 -27 -42
-33 -66 -22 -100 12 -35 66 -88 119 -116 31 -17 32 -19 17 -40 -9 -12 -16 -39
-16 -60 0 -47 49 -106 112 -133 24 -11 45 -20 47 -22 2 -1 -4 -19 -14 -38 -31
-66 3 -128 93 -171 31 -15 58 -28 60 -29 1 -1 -5 -19 -13 -39 -27 -63 6 -121
90 -161 30 -14 55 -27 55 -29 0 -2 -7 -17 -16 -35 -13 -26 -13 -37 -4 -67 14
-40 74 -89 123 -99 45 -10 59 -23 47 -45 -16 -31 -11 -76 12 -105 22 -28 109
-75 140 -75 24 0 29 -14 17 -48 -22 -64 47 -140 144 -157 45 -9 51 -16 36 -49
-27 -58 36 -126 137 -150 41 -9 58 -17 55 -27 -11 -37 -4 -89 14 -109 28 -31
82 -56 137 -64 l47 -7 -5 -43 c-5 -36 -2 -47 21 -74 26 -32 90 -57 160 -64 28
-3 30 -5 27 -43 -6 -74 47 -116 161 -130 l57 -7 -5 -32 c-12 -67 49 -118 150
-126 l60 -5 1 -42 c1 -74 58 -113 164 -113 l60 0 0 -34 c0 -74 77 -121 184
-114 l51 3 6 -44 c9 -70 72 -105 181 -99 l52 3 7 -39 c4 -23 16 -47 29 -58 32
-26 95 -40 145 -32 61 9 58 10 70 -37 18 -74 86 -100 210 -79 27 5 30 2 36
-30 15 -72 96 -104 196 -77 58 15 63 14 63 -19 0 -13 11 -36 24 -51 23 -27 28
-28 103 -27 43 1 89 4 103 5 21 3 26 -1 28 -22 2 -15 14 -37 28 -50 22 -20 36
-24 92 -24 37 0 79 4 94 8 23 8 28 5 43 -26 9 -19 27 -39 41 -46 35 -16 108
-14 151 4 50 21 60 19 71 -14 23 -65 119 -84 208 -40 46 22 59 19 66 -15 10
-58 117 -78 197 -36 44 22 71 21 71 -3 0 -7 11 -24 25 -37 43 -40 117 -31 227
28 3 2 14 -12 23 -31 31 -65 99 -74 195 -24 50 25 64 29 68 18 8 -24 48 -60
75 -66 34 -9 96 10 148 45 40 27 45 28 54 13 18 -29 58 -63 82 -69 28 -7 88
17 144 58 l37 27 26 -33 c48 -64 114 -56 227 25 14 10 21 7 46 -21 24 -27 37
-33 69 -33 47 0 96 23 142 66 l33 32 25 -33 c22 -28 31 -32 73 -32 52 0 106
29 149 78 l23 27 17 -21 c54 -64 141 -54 216 25 32 33 53 39 62 17 9 -22 60
-39 99 -32 23 5 55 26 94 61 l59 55 16 -25 c37 -57 148 -32 203 46 16 21 32
39 36 39 5 0 20 -9 34 -20 56 -44 151 -9 202 74 13 20 25 36 28 36 3 0 16 -9
30 -20 56 -44 151 -9 202 74 13 20 24 36 26 36 2 0 20 -10 40 -21 32 -19 41
-20 75 -10 36 10 77 46 114 96 14 19 16 19 44 3 71 -42 161 3 201 101 15 35
20 37 47 16 10 -8 36 -15 56 -15 47 0 99 43 134 112 13 26 27 48 30 48 3 0 19
-7 36 -16 62 -32 133 12 177 112 l20 44 34 -16 c74 -35 148 23 191 149 5 16 8
17 35 2 17 -8 42 -15 56 -15 37 0 101 64 123 125 14 39 22 49 38 47 86 -15 82
-16 123 25 27 27 44 56 56 96 17 59 23 64 56 46 54 -29 131 32 156 124 l16 57
49 -6 c46 -6 49 -5 87 33 25 25 43 55 51 83 6 25 13 50 15 56 2 7 21 9 52 7
45 -5 52 -2 80 26 32 31 46 65 58 134 6 38 7 38 43 33 72 -12 127 50 141 158
l6 51 41 -3 c71 -5 119 51 132 156 7 57 8 57 39 54 73 -7 122 52 132 163 l6
60 37 -3 c73 -7 109 40 118 153 l5 70 38 1 c70 2 107 58 107 164 l0 70 34 0
c53 0 93 39 104 103 5 29 9 70 8 92 -1 39 0 40 34 43 67 6 105 73 98 170 -3
45 -2 46 31 53 18 4 45 19 60 33 25 25 26 32 25 121 l0 95 26 0 c33 0 77 38
86 75 7 27 0 115 -11 152 -8 24 -5 26 48 37 46 10 69 59 63 131 -3 33 -7 74
-8 90 -3 26 1 30 23 33 66 8 97 104 65 197 -17 52 -14 65 14 65 32 0 50 11 65
41 19 36 19 117 0 162 -20 48 -19 57 4 57 11 0 32 10 47 23 37 32 43 102 15
177 -12 30 -21 57 -21 60 0 4 15 11 33 18 19 7 40 24 48 39 20 37 15 112 -10
161 -25 49 -26 62 -5 62 8 0 29 13 45 29 24 25 29 38 29 78 0 26 -9 68 -21 92
-21 47 -19 71 5 71 8 0 24 12 35 26 30 39 27 98 -8 169 -30 59 -31 75 -6 75 7
0 23 12 35 27 31 39 24 113 -16 179 -35 59 -35 62 -5 77 14 7 34 27 44 45 18
30 18 37 6 74 -7 23 -26 60 -41 82 -34 50 -34 58 -5 71 12 6 31 26 42 46 19
36 19 38 0 80 -10 24 -31 61 -47 81 -34 45 -35 55 -4 69 66 30 59 129 -14 212
l-32 37 31 29 c25 23 31 37 31 70 0 50 -26 105 -69 145 l-31 30 30 27 c56 51
40 137 -39 213 l-30 29 29 34 c17 18 30 45 30 59 0 43 -29 97 -77 141 l-45 42
26 32 c45 53 29 117 -48 187 -25 23 -46 46 -46 51 0 4 9 16 20 26 26 24 27 89
1 131 -11 18 -37 44 -58 60 -21 15 -42 31 -47 35 -5 4 3 22 18 39 14 17 26 40
26 51 0 51 -45 111 -119 159 l-23 15 21 27 c43 54 18 131 -59 187 -23 16 -46
31 -53 34 -7 2 -3 14 11 32 51 64 12 148 -98 208 -31 17 -32 18 -16 42 22 33
20 83 -4 122 -16 26 -94 82 -134 96 -6 2 -2 14 7 27 44 64 3 148 -93 189 -27
12 -50 24 -50 26 0 2 7 20 16 39 30 62 -6 124 -96 166 -43 20 -50 27 -45 45
30 91 -5 151 -110 186 -52 17 -62 26 -47 41 7 7 12 30 12 51 0 52 -55 110
-120 127 -71 18 -73 19 -65 38 19 41 17 81 -4 111 -22 31 -93 71 -127 71 -36
0 -44 13 -33 50 21 68 -30 127 -132 154 -48 12 -54 16 -51 37 6 61 2 83 -20
106 -32 34 -54 45 -118 58 l-55 12 3 45 c3 36 -1 50 -22 75 -28 34 -100 63
-152 63 l-33 0 2 49 c1 37 -3 54 -18 71 -30 33 -74 52 -135 59 l-55 6 3 40 c5
66 -60 125 -136 125 -51 0 -62 9 -62 49 0 67 -65 111 -165 111 -55 0 -55 0
-55 30 0 80 -56 120 -169 120 l-71 0 0 40 c0 74 -79 119 -181 105 l-49 -7 0
35 c0 74 -64 111 -178 105 -65 -3 -67 -2 -65 20 5 38 -25 82 -65 99 -28 12
-55 14 -109 9 -69 -7 -73 -6 -73 14 0 35 -27 76 -59 90 -27 11 -102 10 -176
-2 -16 -2 -21 3 -23 27 -8 66 -80 103 -169 86 -27 -6 -55 -11 -63 -13 -7 -2
-16 10 -21 28 -5 16 -20 41 -35 55 -23 21 -34 24 -92 22 -37 -1 -80 -4 -97 -5
-24 -2 -31 1 -33 19 -2 13 -15 32 -29 43 -40 31 -86 35 -156 12 -67 -22 -77
-21 -77 9 0 11 -11 31 -25 44 -20 21 -34 25 -85 25 -40 0 -75 -7 -102 -20 -44
-21 -58 -19 -58 8 -2 65 -108 93 -199 52 -56 -26 -60 -25 -73 10 -21 62 -106
77 -196 35 -30 -14 -56 -25 -58 -25 -1 0 -10 15 -19 34 -30 63 -108 74 -198
27 l-56 -29 -20 33 c-35 60 -114 65 -205 11 -50 -29 -66 -32 -66 -13 0 8 -12
24 -26 38 -38 36 -107 32 -174 -9 -61 -38 -67 -39 -81 -9 -11 24 -61 57 -87
57 -9 0 -39 -13 -67 -28z m140 -332 c38 0 76 8 103 20 42 19 42 19 77 -1 41
-25 144 -28 197 -6 30 12 36 12 60 -7 35 -25 132 -33 192 -16 40 11 47 10 74
-10 38 -28 155 -40 202 -20 27 11 33 10 53 -8 12 -11 35 -25 50 -31 36 -14
142 -14 168 0 16 8 26 5 54 -20 41 -35 83 -45 168 -39 57 5 65 3 94 -23 37
-32 124 -53 177 -44 28 6 41 2 68 -18 46 -34 91 -47 162 -47 50 0 63 -4 74
-20 22 -36 91 -64 164 -66 62 -1 68 -4 102 -37 40 -40 130 -73 175 -64 31 7
44 0 59 -30 17 -31 112 -75 166 -75 40 -1 49 -6 75 -38 36 -46 106 -81 159
-82 34 0 45 -6 77 -45 44 -53 103 -82 162 -83 36 0 45 -4 57 -27 31 -60 92
-101 165 -112 37 -5 48 -12 59 -33 19 -40 88 -95 139 -110 31 -9 49 -21 59
-39 29 -56 90 -97 192 -125 6 -2 12 -12 12 -23 0 -45 124 -141 182 -141 11 0
20 -10 24 -27 14 -61 93 -130 167 -147 19 -5 27 -13 27 -28 0 -50 88 -138 153
-154 29 -7 31 -9 41 -57 9 -39 73 -107 122 -129 36 -15 43 -24 53 -62 13 -53
84 -129 136 -146 27 -9 35 -17 35 -36 0 -56 74 -151 136 -174 17 -7 24 -17 24
-35 0 -43 37 -101 95 -151 45 -39 55 -53 55 -80 0 -40 53 -120 100 -152 30
-20 36 -30 42 -74 7 -59 47 -121 98 -156 29 -19 34 -28 35 -65 1 -52 41 -125
90 -164 31 -24 35 -34 35 -72 0 -57 32 -124 76 -159 31 -24 34 -32 34 -78 0
-60 39 -145 80 -175 24 -19 26 -25 22 -70 -4 -39 1 -60 22 -104 15 -30 38 -63
52 -74 21 -17 24 -25 19 -55 -9 -46 18 -136 53 -177 23 -28 27 -42 28 -99 1
-73 26 -140 68 -179 20 -19 23 -28 15 -53 -15 -54 11 -148 54 -195 17 -19 19
-27 9 -48 -25 -56 -9 -154 35 -205 22 -27 24 -35 14 -56 -26 -57 -1 -204 38
-228 8 -5 6 -17 -5 -38 -22 -43 -14 -142 16 -196 22 -40 23 -41 5 -78 -21 -45
-17 -132 9 -186 17 -35 17 -40 2 -72 -23 -48 -21 -142 4 -191 l20 -39 -21 -44
c-18 -35 -21 -56 -17 -111 3 -36 11 -76 18 -87 13 -21 12 -27 -15 -74 -18 -30
-20 -148 -4 -183 9 -21 7 -30 -12 -56 -28 -38 -39 -153 -19 -202 11 -26 10
-32 -8 -52 -11 -12 -25 -35 -31 -50 -14 -37 -14 -130 0 -161 10 -21 8 -29 -14
-56 -42 -50 -60 -145 -38 -203 8 -20 5 -29 -15 -48 -34 -32 -58 -119 -51 -185
5 -44 2 -55 -15 -71 -37 -32 -58 -93 -58 -166 0 -63 -2 -71 -29 -96 -38 -35
-65 -126 -57 -186 6 -38 4 -44 -19 -59 -39 -26 -75 -110 -75 -177 0 -49 -3
-57 -24 -67 -31 -14 -76 -105 -76 -154 0 -30 -7 -44 -36 -70 -47 -43 -74 -98
-81 -163 -5 -43 -10 -55 -29 -64 -50 -22 -121 -166 -100 -200 4 -6 -11 -22
-33 -35 -48 -31 -94 -105 -101 -165 -4 -38 -10 -47 -39 -63 -18 -11 -42 -29
-53 -41 -28 -32 -58 -98 -58 -129 0 -20 -8 -30 -37 -45 -47 -23 -100 -92 -116
-150 -9 -33 -19 -48 -37 -55 -57 -21 -118 -101 -129 -167 -5 -28 -12 -36 -36
-43 -38 -9 -109 -79 -125 -121 -6 -18 -16 -41 -20 -53 -5 -13 -21 -24 -39 -27
-39 -8 -101 -70 -128 -129 -17 -35 -28 -47 -52 -51 -43 -9 -117 -80 -137 -133
-14 -37 -21 -44 -44 -44 -27 0 -90 -39 -121 -76 -10 -10 -25 -37 -35 -59 -12
-24 -27 -41 -39 -43 -52 -8 -68 -15 -106 -49 -22 -20 -49 -54 -60 -75 -15 -29
-25 -38 -45 -38 -13 0 -42 -9 -63 -19 -42 -22 -111 -93 -111 -116 0 -8 -3 -15
-7 -16 -53 -4 -74 -9 -100 -22 -45 -24 -92 -66 -109 -98 -12 -24 -21 -29 -50
-29 -19 0 -52 -9 -73 -19 -38 -20 -111 -93 -111 -111 0 -6 -18 -10 -40 -10
-55 0 -124 -35 -166 -84 -30 -35 -41 -41 -78 -42 -48 -2 -98 -24 -141 -64 -24
-22 -43 -29 -91 -33 -70 -6 -108 -23 -154 -69 -29 -28 -40 -32 -89 -33 -63 -1
-120 -27 -164 -73 -25 -26 -33 -29 -72 -25 -56 7 -134 -19 -171 -57 -26 -27
-33 -29 -75 -24 -59 8 -138 -17 -184 -58 -29 -25 -37 -28 -56 -18 -44 24 -154
-5 -206 -53 -19 -17 -27 -19 -48 -9 -52 24 -136 10 -200 -34 -35 -24 -42 -25
-80 -14 -53 15 -136 0 -185 -34 -32 -22 -36 -22 -70 -8 -45 18 -129 9 -181
-20 -35 -19 -41 -20 -65 -7 -42 22 -143 17 -191 -10 -38 -22 -42 -22 -71 -7
-45 23 -145 21 -197 -4 -41 -20 -41 -20 -80 0 -48 24 -117 26 -182 4 -43 -15
-49 -15 -75 1 -44 25 -128 31 -188 11 -49 -16 -51 -16 -80 6 -37 27 -134 36
-190 18 -34 -11 -40 -10 -66 9 -51 37 -175 46 -223 17 -8 -5 -23 2 -40 18 -37
36 -128 54 -189 37 -43 -11 -47 -10 -71 13 -38 36 -77 47 -151 45 -47 -1 -73
3 -91 14 -52 34 -101 48 -165 46 -58 -2 -66 0 -84 23 -29 37 -94 61 -172 62
-59 1 -68 4 -87 27 -28 36 -93 61 -162 63 -50 2 -60 5 -83 33 -32 38 -118 73
-179 73 -36 0 -44 4 -58 28 -22 40 -110 82 -169 82 -40 0 -48 4 -58 24 -23 51
-126 106 -198 106 -19 0 -34 4 -34 9 0 5 -12 24 -27 42 -32 38 -115 79 -161
79 -25 0 -35 6 -41 23 -20 52 -94 102 -183 121 -16 4 -28 13 -28 21 0 42 -114
125 -172 125 -21 0 -30 9 -49 47 -28 56 -100 110 -160 119 -31 5 -39 11 -44
34 -11 51 -119 140 -169 140 -9 0 -23 17 -31 37 -27 64 -120 143 -168 143 -9
0 -17 14 -21 33 -9 49 -71 116 -133 143 -46 21 -53 27 -53 52 0 39 -69 117
-129 145 -39 19 -47 27 -52 58 -9 60 -76 135 -136 154 -15 4 -23 14 -23 28 0
38 -41 106 -90 150 -36 32 -49 51 -53 79 -7 50 -59 123 -108 153 -34 22 -39
30 -39 64 0 49 -49 126 -102 160 -32 21 -38 30 -38 60 0 50 -35 115 -86 160
-38 33 -44 44 -44 77 0 52 -34 117 -82 158 -33 28 -39 40 -34 59 11 44 -22
125 -69 172 -39 40 -43 47 -38 83 7 50 -26 127 -73 173 -29 28 -33 38 -28 65
9 47 -20 133 -60 180 -26 31 -33 46 -29 67 9 48 -7 116 -41 166 -29 43 -33 56
-29 95 7 60 -13 131 -49 172 -24 27 -27 36 -18 59 22 59 3 150 -45 207 -19 23
-23 34 -15 48 26 48 4 176 -37 222 -13 15 -14 23 -5 44 24 52 10 165 -26 207
-13 15 -14 23 -4 51 19 52 15 141 -9 197 -21 47 -21 50 -4 86 22 45 14 140
-15 190 -20 33 -20 33 2 74 17 33 20 52 16 103 -3 34 -13 77 -22 95 -17 31
-17 34 1 53 15 17 18 38 19 127 0 77 5 116 17 143 20 43 22 127 6 173 -11 28
-9 36 12 64 19 26 25 48 27 111 3 46 -1 86 -8 99 -9 18 -7 26 14 52 14 17 26
34 26 37 1 4 5 27 10 52 5 26 5 65 -1 94 -8 43 -7 51 15 77 31 37 50 118 42
184 -5 45 -3 55 15 71 34 31 52 84 53 161 1 59 5 75 23 95 37 39 55 95 52 165
-2 59 0 67 23 86 40 33 60 84 66 162 4 58 9 73 29 88 35 28 65 93 70 158 5 48
10 60 34 78 40 30 70 94 76 161 5 48 9 58 33 72 41 23 80 97 87 162 5 50 9 58
38 75 44 25 87 101 93 161 4 42 8 50 33 60 51 21 109 117 109 180 0 24 6 32
33 44 57 23 117 111 117 171 0 20 8 29 33 40 56 24 116 101 126 163 5 29 13
40 39 52 65 31 117 97 131 164 5 23 14 32 39 38 46 12 106 76 130 139 16 43
25 55 48 61 46 12 101 64 128 122 22 47 30 55 62 61 46 8 129 89 142 136 7 29
14 35 49 42 50 9 127 74 151 126 10 20 26 37 37 39 49 7 64 13 101 43 21 17
51 51 67 75 22 36 32 44 58 44 54 0 136 58 163 115 15 30 22 35 52 35 60 0
153 63 175 118 7 17 16 22 46 22 52 0 116 34 162 86 31 36 45 44 73 44 45 0
131 43 164 83 23 27 34 32 73 33 55 1 117 31 161 77 29 31 37 34 71 30 49 -7
154 41 187 86 18 25 27 29 51 25 43 -9 132 21 176 59 35 30 43 33 68 24 43
-15 129 8 181 48 38 29 49 32 90 28 60 -7 131 13 172 49 31 27 34 28 76 17 54
-15 140 7 188 47 27 23 34 25 56 15 50 -23 157 -4 208 37 24 18 29 19 65 6 61
-21 163 0 213 43 14 13 19 12 42 -2 33 -22 135 -17 189 9 33 16 41 17 70 5 47
-20 145 -15 192 9 38 19 39 19 69 1 21 -13 50 -19 91 -19z"/>
</g>
</svg>
