<?xml version="1.0" standalone="no"?>
<!DOCTYPE svg PUBLIC "-//W3C//DTD SVG 20010904//EN"
 "http://www.w3.org/TR/2001/REC-SVG-20010904/DTD/svg10.dtd">
<svg version="1.0" xmlns="http://www.w3.org/2000/svg"
 width="512.000000pt" height="512.000000pt" viewBox="0 0 512.000000 512.000000"
 preserveAspectRatio="xMidYMid meet">

<g transform="translate(0.000000,512.000000) scale(0.100000,-0.100000)"
fill="#000000" stroke="none">
<path d="M2330 5110 c-474 -43 -923 -219 -1330 -524 -122 -91 -375 -344 -466
-466 -263 -351 -424 -717 -494 -1120 -124 -711 47 -1402 494 -2000 91 -122
344 -375 466 -466 598 -447 1289 -618 2000 -494 403 70 769 231 1120 494 122
91 375 344 466 466 447 598 618 1289 494 2000 -70 403 -231 769 -494 1120 -91
122 -344 375 -466 466 -535 401 -1151 581 -1790 524z m435 -300 c583 -54 1146
-347 1517 -790 715 -853 715 -2067 0 -2920 -371 -443 -934 -736 -1517 -790
-598 -55 -1196 135 -1665 528 -498 417 -800 1067 -800 1722 0 676 320 1341
847 1761 459 366 1041 542 1618 489z"/>
</g>
</svg>
